# Created by Open3D 
# object name: panda8
# number of vertices: 336
# number of triangles: 112
v 2.20238e-05 -3.20171e-06 -0.0179
vn 2.23197e-07 -4.14762e-07 1
v 0.000211984 -0.0314865 -0.0179
vn 2.23197e-07 -4.14762e-07 1
v 0.012246 -0.0290173 -0.0179
vn 2.23197e-07 -4.14762e-07 1
v 0.000211984 -0.0314864 -0.0274
vn -2.6045e-07 4.81817e-07 -1
v 2.20238e-05 -3.20171e-06 -0.0274
vn -2.6045e-07 4.81817e-07 -1
v 0.012246 -0.0290172 -0.0274
vn -2.6045e-07 4.81817e-07 -1
v 0.029182 -0.0118759 -0.0274
vn -2.6045e-07 4.81817e-07 -1
v 2.20238e-05 -3.20171e-06 -0.0274
vn -2.6045e-07 4.81817e-07 -1
v 0.031505 0.000186699 -0.0274
vn -2.6045e-07 4.81817e-07 -1
v 0.031505 0.000186699 -0.0274
vn -2.6045e-07 4.81817e-07 -1
v 2.20238e-05 -3.20171e-06 -0.0274
vn -2.6045e-07 4.81817e-07 -1
v 0.029036 0.0122204 -0.0274
vn -2.6045e-07 4.81817e-07 -1
v 0.029036 0.0122204 -0.0274
vn -2.6045e-07 4.81817e-07 -1
v 2.20238e-05 -3.20171e-06 -0.0274
vn -2.6045e-07 4.81817e-07 -1
v 0.02215 0.0223931 -0.0274
vn -2.6045e-07 4.81817e-07 -1
v 0.02215 0.0223931 -0.0274
vn -2.6045e-07 4.81817e-07 -1
v 2.20238e-05 -3.20171e-06 -0.0274
vn -2.6045e-07 4.81817e-07 -1
v 0.011895 0.0291566 -0.0274
vn -2.6045e-07 4.81817e-07 -1
v -0.000167996 0.0314806 -0.0274
vn -2.6045e-07 4.81817e-07 -1
v 2.20238e-05 -3.20171e-06 -0.0274
vn -2.6045e-07 4.81817e-07 -1
v -0.012201 0.0290106 -0.0274
vn -2.6045e-07 4.81817e-07 -1
v -0.000167996 0.0314796 -0.0179
vn 0.0227883 0.99974 4.15308e-07
v -0.000167996 0.0314806 -0.0274
vn -0.0419217 0.999121 4.29823e-07
v -0.012201 0.0290106 -0.0179
vn -0.335759 0.941948 4.58858e-07
v -0.000167996 0.0314806 -0.0274
vn -0.0419217 0.999121 4.29823e-07
v -0.012201 0.0290106 -0.0274
vn -0.422974 0.906142 4.60696e-07
v -0.012201 0.0290106 -0.0179
vn -0.335759 0.941948 4.58858e-07
v 2.20238e-05 -3.20171e-06 -0.0179
vn 2.23197e-07 -4.14762e-07 1
v -0.012201 0.0290106 -0.0179
vn 2.23197e-07 -4.14762e-07 1
v -0.022374 0.0221246 -0.0179
vn 2.23197e-07 -4.14762e-07 1
v -0.012201 0.0290106 -0.0274
vn -2.6045e-07 4.81817e-07 -1
v 2.20238e-05 -3.20171e-06 -0.0274
vn -2.6045e-07 4.81817e-07 -1
v -0.022374 0.0221246 -0.0274
vn -2.6045e-07 4.81817e-07 -1
v -0.012201 0.0290106 -0.0179
vn -0.335759 0.941948 4.58858e-07
v -0.012201 0.0290106 -0.0274
vn -0.422974 0.906142 4.60696e-07
v -0.022374 0.0221246 -0.0179
vn -0.657919 0.753089 4.70148e-07
v -0.012201 0.0290106 -0.0274
vn -0.422974 0.906142 4.60696e-07
v -0.022374 0.0221246 -0.0274
vn -0.760975 0.648781 4.90727e-07
v -0.022374 0.0221246 -0.0179
vn -0.657919 0.753089 4.70148e-07
v 2.20238e-05 -3.20171e-06 -0.0179
vn 2.23197e-07 -4.14762e-07 1
v -0.022374 0.0221246 -0.0179
vn 2.23197e-07 -4.14762e-07 1
v -0.029137 0.0118695 -0.0179
vn 2.23197e-07 -4.14762e-07 1
v -0.022374 0.0221246 -0.0274
vn -2.6045e-07 4.81817e-07 -1
v 2.20238e-05 -3.20171e-06 -0.0274
vn -2.6045e-07 4.81817e-07 -1
v -0.029137 0.0118695 -0.0274
vn -2.6045e-07 4.81817e-07 -1
v -0.022374 0.0221246 -0.0179
vn -0.657919 0.753089 4.70148e-07
v -0.022374 0.0221246 -0.0274
vn -0.760975 0.648781 4.90727e-07
v -0.029137 0.0118695 -0.0179
vn -0.907442 0.420178 3.73444e-07
v -0.022374 0.0221246 -0.0274
vn -0.760975 0.648781 4.90727e-07
v -0.029137 0.0118695 -0.0274
vn -0.955014 0.296561 3.55316e-07
v -0.029137 0.0118695 -0.0179
vn -0.907442 0.420178 3.73444e-07
v -0.029137 0.0118695 -0.0274
vn -2.6045e-07 4.81817e-07 -1
v 2.20238e-05 -3.20171e-06 -0.0274
vn -2.6045e-07 4.81817e-07 -1
v -0.031461 -0.000193102 -0.0274
vn -2.6045e-07 4.81817e-07 -1
v -0.029137 0.0118695 -0.0179
vn -0.907442 0.420178 3.73444e-07
v -0.029137 0.0118695 -0.0274
vn -0.955014 0.296561 3.55316e-07
v -0.031461 -0.000193102 -0.0179
vn -0.99974 0.0227883 2.79514e-07
v -0.029137 0.0118695 -0.0274
vn -0.955014 0.296561 3.55316e-07
v -0.031461 -0.000193102 -0.0274
vn -0.999121 -0.0419217 2.67561e-07
v -0.031461 -0.000193102 -0.0179
vn -0.99974 0.0227883 2.79514e-07
v -0.031461 -0.000193102 -0.0274
vn -2.6045e-07 4.81817e-07 -1
v 2.20238e-05 -3.20171e-06 -0.0274
vn -2.6045e-07 4.81817e-07 -1
v -0.028992 -0.0122268 -0.0274
vn -2.6045e-07 4.81817e-07 -1
v -0.031461 -0.000193102 -0.0179
vn -0.99974 0.0227883 2.79514e-07
v -0.031461 -0.000193102 -0.0274
vn -0.999121 -0.0419217 2.67561e-07
v -0.028992 -0.0122268 -0.0179
vn -0.941948 -0.335759 1.18629e-07
v -0.031461 -0.000193102 -0.0274
vn -0.999121 -0.0419217 2.67561e-07
v -0.028992 -0.0122268 -0.0274
vn -0.906142 -0.422974 6.93408e-08
v -0.028992 -0.0122268 -0.0179
vn -0.941948 -0.335759 1.18629e-07
v -0.028992 -0.0122268 -0.0274
vn -2.6045e-07 4.81817e-07 -1
v 2.20238e-05 -3.20171e-06 -0.0274
vn -2.6045e-07 4.81817e-07 -1
v -0.022106 -0.0223995 -0.0274
vn -2.6045e-07 4.81817e-07 -1
v -0.028992 -0.0122268 -0.0179
vn -0.941948 -0.335759 1.18629e-07
v -0.028992 -0.0122268 -0.0274
vn -0.906142 -0.422974 6.93408e-08
v -0.022106 -0.0223995 -0.0179
vn -0.753089 -0.657919 -1.37628e-07
v -0.028992 -0.0122268 -0.0274
vn -0.906142 -0.422974 6.93408e-08
v -0.022106 -0.0223995 -0.0274
vn -0.648781 -0.760975 -1.81539e-07
v -0.022106 -0.0223995 -0.0179
vn -0.753089 -0.657919 -1.37628e-07
v -0.022106 -0.0223995 -0.0179
vn -0.753089 -0.657919 -1.37628e-07
v -0.022106 -0.0223995 -0.0274
vn -0.648781 -0.760975 -1.81539e-07
v -0.01185 -0.0291626 -0.0179
vn -0.420178 -0.907442 -2.90133e-07
v -0.022106 -0.0223995 -0.0274
vn -0.648781 -0.760975 -1.81539e-07
v -0.01185 -0.0291626 -0.0274
vn -0.296561 -0.955014 -3.27837e-07
v -0.01185 -0.0291626 -0.0179
vn -0.420178 -0.907442 -2.90133e-07
v -0.01185 -0.0291626 -0.0274
vn -2.6045e-07 4.81817e-07 -1
v 2.20238e-05 -3.20171e-06 -0.0274
vn -2.6045e-07 4.81817e-07 -1
v 0.000211984 -0.0314864 -0.0274
vn -2.6045e-07 4.81817e-07 -1
v -0.01185 -0.0291626 -0.0179
vn -0.420178 -0.907442 -2.90133e-07
v -0.01185 -0.0291626 -0.0274
vn -0.296561 -0.955014 -3.27837e-07
v 0.000211984 -0.0314865 -0.0179
vn -0.0227884 -0.99974 -4.19965e-07
v -0.01185 -0.0291626 -0.0274
vn -0.296561 -0.955014 -3.27837e-07
v 0.000211984 -0.0314864 -0.0274
vn 0.0419217 -0.999121 -4.40999e-07
v 0.000211984 -0.0314865 -0.0179
vn -0.0227884 -0.99974 -4.19965e-07
v -0.020583 -0.0388631 0.0274
vn -0.547513 -0.836797 -2.05251e-07
v -0.020583 -0.0388636 -0.0184
vn -0.420178 -0.907442 -2.90133e-07
v -0.00414398 -0.0437819 0.0274
vn -0.167742 -0.985831 -3.73612e-07
v -0.020583 -0.0388636 -0.0184
vn -0.420178 -0.907442 -2.90133e-07
v -0.00414398 -0.0437823 -0.0184
vn -0.0227884 -0.99974 -4.19965e-07
v -0.00414398 -0.0437819 0.0274
vn -0.167742 -0.985831 -3.73612e-07
v -0.00414398 -0.0437823 -0.0184
vn -2.6045e-07 4.81817e-07 -1
v 2.96516e-08 -1.99131e-07 -0.0184
vn -2.6045e-07 4.81817e-07 -1
v 0.012926 -0.0420354 -0.0184
vn -2.6045e-07 4.81817e-07 -1
v 0.012926 -0.0420354 -0.0184
vn -2.6045e-07 4.81817e-07 -1
v 2.96516e-08 -1.99131e-07 -0.0184
vn -2.6045e-07 4.81817e-07 -1
v 0.028028 -0.0338891 -0.0184
vn -2.6045e-07 4.81817e-07 -1
v 0.038863 -0.0205835 -0.0184
vn -2.6045e-07 4.81817e-07 -1
v 2.96516e-08 -1.99131e-07 -0.0184
vn -2.6045e-07 4.81817e-07 -1
v 0.043782 -0.0041443 -0.0184
vn -2.6045e-07 4.81817e-07 -1
v 0.033889 0.0280286 -0.0184
vn -2.6045e-07 4.81817e-07 -1
v 2.96516e-08 -1.99131e-07 -0.0184
vn -2.6045e-07 4.81817e-07 -1
v 0.020583 0.0388636 -0.0184
vn -2.6045e-07 4.81817e-07 -1
v 0.020583 0.0388636 -0.0184
vn -2.6045e-07 4.81817e-07 -1
v 2.96516e-08 -1.99131e-07 -0.0184
vn -2.6045e-07 4.81817e-07 -1
v 0.00414398 0.0437816 -0.0184
vn -2.6045e-07 4.81817e-07 -1
v 0.00414398 0.0437826 0.0274
vn 0.167742 0.985831 3.58712e-07
v 0.00414398 0.0437816 -0.0184
vn 0.0227883 0.99974 4.15308e-07
v -0.012926 0.0420356 0.0274
vn -0.191658 0.981462 4.52209e-07
v 0.00414398 0.0437816 -0.0184
vn 0.0227883 0.99974 4.15308e-07
v -0.012926 0.0420346 -0.0184
vn -0.335759 0.941948 4.58858e-07
v -0.012926 0.0420356 0.0274
vn -0.191658 0.981462 4.52209e-07
v -0.012926 0.0420346 -0.0184
vn -2.6045e-07 4.81817e-07 -1
v 2.96516e-08 -1.99131e-07 -0.0184
vn -2.6045e-07 4.81817e-07 -1
v -0.028028 0.0338886 -0.0184
vn -2.6045e-07 4.81817e-07 -1
v -0.012926 0.0420356 0.0274
vn -0.191658 0.981462 4.52209e-07
v -0.012926 0.0420346 -0.0184
vn -0.335759 0.941948 4.58858e-07
v -0.028028 0.0338896 0.0274
vn -0.586074 0.810257 4.43917e-07
v -0.012926 0.0420346 -0.0184
vn -0.335759 0.941948 4.58858e-07
v -0.028028 0.0338886 -0.0184
vn -0.700262 0.713886 4.96832e-07
v -0.028028 0.0338896 0.0274
vn -0.586074 0.810257 4.43917e-07
v -0.028028 0.0338886 -0.0184
vn -2.6045e-07 4.81817e-07 -1
v 2.96516e-08 -1.99131e-07 -0.0184
vn -2.6045e-07 4.81817e-07 -1
v -0.038863 0.0205833 -0.0184
vn -2.6045e-07 4.81817e-07 -1
v -0.028028 0.0338896 0.0274
vn -0.586074 0.810257 4.43917e-07
v -0.028028 0.0338886 -0.0184
vn -0.700262 0.713886 4.96832e-07
v -0.038863 0.0205837 0.0274
vn -0.836797 0.547513 3.90028e-07
v -0.028028 0.0338886 -0.0184
vn -0.700262 0.713886 4.96832e-07
v -0.038863 0.0205833 -0.0184
vn -0.907442 0.420178 3.73444e-07
v -0.038863 0.0205837 0.0274
vn -0.836797 0.547513 3.90028e-07
v -0.038863 0.0205833 -0.0184
vn -2.6045e-07 4.81817e-07 -1
v 2.96516e-08 -1.99131e-07 -0.0184
vn -2.6045e-07 4.81817e-07 -1
v -0.043782 0.0041439 -0.0184
vn -2.6045e-07 4.81817e-07 -1
v -0.038863 0.0205837 0.0274
vn -0.836797 0.547513 3.90028e-07
v -0.038863 0.0205833 -0.0184
vn -0.907442 0.420178 3.73444e-07
v -0.043782 0.0041441 0.0274
vn -0.985831 0.167742 3.34615e-07
v -0.038863 0.0205833 -0.0184
vn -0.907442 0.420178 3.73444e-07
v -0.043782 0.0041439 -0.0184
vn -0.99974 0.0227883 2.79514e-07
v -0.043782 0.0041441 0.0274
vn -0.985831 0.167742 3.34615e-07
v -0.043782 0.0041439 -0.0184
vn -2.6045e-07 4.81817e-07 -1
v 2.96516e-08 -1.99131e-07 -0.0184
vn -2.6045e-07 4.81817e-07 -1
v -0.042035 -0.0129262 -0.0184
vn -2.6045e-07 4.81817e-07 -1
v -0.043782 0.0041441 0.0274
vn -0.985831 0.167742 3.34615e-07
v -0.043782 0.0041439 -0.0184
vn -0.99974 0.0227883 2.79514e-07
v -0.042035 -0.0129261 0.0274
vn -0.981462 -0.191658 2.08534e-07
v -0.043782 0.0041439 -0.0184
vn -0.99974 0.0227883 2.79514e-07
v -0.042035 -0.0129262 -0.0184
vn -0.941948 -0.335759 1.18629e-07
v -0.042035 -0.0129261 0.0274
vn -0.981462 -0.191658 2.08534e-07
v -0.042035 -0.0129261 0.0274
vn -0.981462 -0.191658 2.08534e-07
v -0.042035 -0.0129262 -0.0184
vn -0.941948 -0.335759 1.18629e-07
v -0.033889 -0.028028 0.0274
vn -0.810257 -0.586074 -5.92993e-08
v -0.042035 -0.0129262 -0.0184
vn -0.941948 -0.335759 1.18629e-07
v -0.033889 -0.0280284 -0.0184
vn -0.713886 -0.700262 -1.49194e-07
v -0.033889 -0.028028 0.0274
vn -0.810257 -0.586074 -5.92993e-08
v -0.033889 -0.028028 0.0274
vn -0.810257 -0.586074 -5.92993e-08
v -0.033889 -0.0280284 -0.0184
vn -0.713886 -0.700262 -1.49194e-07
v -0.020583 -0.0388631 0.0274
vn -0.547513 -0.836797 -2.05251e-07
v -0.033889 -0.0280284 -0.0184
vn -0.713886 -0.700262 -1.49194e-07
v -0.020583 -0.0388636 -0.0184
vn -0.420178 -0.907442 -2.90133e-07
v -0.020583 -0.0388631 0.0274
vn -0.547513 -0.836797 -2.05251e-07
v 0.000211984 -0.0314865 -0.0179
vn -0.0227884 -0.99974 -4.19965e-07
v 0.000211984 -0.0314864 -0.0274
vn 0.0419217 -0.999121 -4.40999e-07
v 0.012246 -0.0290173 -0.0179
vn 0.335759 -0.941948 -5.03561e-07
v 0.000211984 -0.0314864 -0.0274
vn 0.0419217 -0.999121 -4.40999e-07
v 0.012246 -0.0290172 -0.0274
vn 0.422974 -0.906142 -5.05399e-07
v 0.012246 -0.0290173 -0.0179
vn 0.335759 -0.941948 -5.03561e-07
v 2.20238e-05 -3.20171e-06 -0.0179
vn 2.23197e-07 -4.14762e-07 1
v 0.012246 -0.0290173 -0.0179
vn 2.23197e-07 -4.14762e-07 1
v 0.022419 -0.0221309 -0.0179
vn 2.23197e-07 -4.14762e-07 1
v 0.012246 -0.0290172 -0.0274
vn -2.6045e-07 4.81817e-07 -1
v 2.20238e-05 -3.20171e-06 -0.0274
vn -2.6045e-07 4.81817e-07 -1
v 0.022419 -0.022131 -0.0274
vn -2.6045e-07 4.81817e-07 -1
v 0.012246 -0.0290173 -0.0179
vn 0.335759 -0.941948 -5.03561e-07
v 0.012246 -0.0290172 -0.0274
vn 0.422974 -0.906142 -5.05399e-07
v 0.022419 -0.0221309 -0.0179
vn 0.657919 -0.753089 -4.9995e-07
v 0.012246 -0.0290172 -0.0274
vn 0.422974 -0.906142 -5.05399e-07
v 0.022419 -0.022131 -0.0274
vn 0.760975 -0.648781 -4.0132e-07
v 0.022419 -0.0221309 -0.0179
vn 0.657919 -0.753089 -4.9995e-07
v 2.20238e-05 -3.20171e-06 -0.0179
vn 2.23197e-07 -4.14762e-07 1
v 0.022419 -0.0221309 -0.0179
vn 2.23197e-07 -4.14762e-07 1
v 0.029182 -0.0118759 -0.0179
vn 2.23197e-07 -4.14762e-07 1
v 0.022419 -0.022131 -0.0274
vn -2.6045e-07 4.81817e-07 -1
v 2.20238e-05 -3.20171e-06 -0.0274
vn -2.6045e-07 4.81817e-07 -1
v 0.029182 -0.0118759 -0.0274
vn -2.6045e-07 4.81817e-07 -1
v 0.022419 -0.0221309 -0.0179
vn 0.657919 -0.753089 -4.9995e-07
v 0.022419 -0.022131 -0.0274
vn 0.760975 -0.648781 -4.0132e-07
v 0.029182 -0.0118759 -0.0179
vn 0.907442 -0.420178 -3.43642e-07
v 0.022419 -0.022131 -0.0274
vn 0.760975 -0.648781 -4.0132e-07
v 0.029182 -0.0118759 -0.0274
vn 0.955014 -0.296561 -3.25514e-07
v 0.029182 -0.0118759 -0.0179
vn 0.907442 -0.420178 -3.43642e-07
v 2.20238e-05 -3.20171e-06 -0.0179
vn 2.23197e-07 -4.14762e-07 1
v 0.029182 -0.0118759 -0.0179
vn 2.23197e-07 -4.14762e-07 1
v 0.031505 0.000186699 -0.0179
vn 2.23197e-07 -4.14762e-07 1
v 0.029182 -0.0118759 -0.0179
vn 0.907442 -0.420178 -3.43642e-07
v 0.029182 -0.0118759 -0.0274
vn 0.955014 -0.296561 -3.25514e-07
v 0.031505 0.000186699 -0.0179
vn 0.99974 -0.0227883 -2.79514e-07
v 0.029182 -0.0118759 -0.0274
vn 0.955014 -0.296561 -3.25514e-07
v 0.031505 0.000186699 -0.0274
vn 0.999121 0.0419217 -1.48352e-07
v 0.031505 0.000186699 -0.0179
vn 0.99974 -0.0227883 -2.79514e-07
v 2.20238e-05 -3.20171e-06 -0.0179
vn 2.23197e-07 -4.14762e-07 1
v 0.031505 0.000186699 -0.0179
vn 2.23197e-07 -4.14762e-07 1
v 0.029036 0.0122204 -0.0179
vn 2.23197e-07 -4.14762e-07 1
v 0.031505 0.000186699 -0.0179
vn 0.99974 -0.0227883 -2.79514e-07
v 0.031505 0.000186699 -0.0274
vn 0.999121 0.0419217 -1.48352e-07
v 0.029036 0.0122204 -0.0179
vn 0.941948 0.335759 -2.92224e-08
v 0.031505 0.000186699 -0.0274
vn 0.999121 0.0419217 -1.48352e-07
v 0.029036 0.0122204 -0.0274
vn 0.906142 0.422974 -6.93408e-08
v 0.029036 0.0122204 -0.0179
vn 0.941948 0.335759 -2.92224e-08
v 2.20238e-05 -3.20171e-06 -0.0179
vn 2.23197e-07 -4.14762e-07 1
v 0.029036 0.0122204 -0.0179
vn 2.23197e-07 -4.14762e-07 1
v 0.02215 0.0223931 -0.0179
vn 2.23197e-07 -4.14762e-07 1
v 0.029036 0.0122204 -0.0179
vn 0.941948 0.335759 -2.92224e-08
v 0.029036 0.0122204 -0.0274
vn 0.906142 0.422974 -6.93408e-08
v 0.02215 0.0223931 -0.0179
vn 0.753089 0.657918 1.07825e-07
v 0.029036 0.0122204 -0.0274
vn 0.906142 0.422974 -6.93408e-08
v 0.02215 0.0223931 -0.0274
vn 0.648781 0.760975 1.66638e-07
v 0.02215 0.0223931 -0.0179
vn 0.753089 0.657918 1.07825e-07
v 2.20238e-05 -3.20171e-06 -0.0179
vn 2.23197e-07 -4.14762e-07 1
v 0.02215 0.0223931 -0.0179
vn 2.23197e-07 -4.14762e-07 1
v 0.011895 0.0291566 -0.0179
vn 2.23197e-07 -4.14762e-07 1
v 0.02215 0.0223931 -0.0179
vn 0.753089 0.657918 1.07825e-07
v 0.02215 0.0223931 -0.0274
vn 0.648781 0.760975 1.66638e-07
v 0.011895 0.0291566 -0.0179
vn 0.420178 0.907442 2.6033e-07
v 0.02215 0.0223931 -0.0274
vn 0.648781 0.760975 1.66638e-07
v 0.011895 0.0291566 -0.0274
vn 0.296561 0.955014 3.25711e-07
v 0.011895 0.0291566 -0.0179
vn 0.420178 0.907442 2.6033e-07
v 2.20238e-05 -3.20171e-06 -0.0179
vn 2.23197e-07 -4.14762e-07 1
v 0.011895 0.0291566 -0.0179
vn 2.23197e-07 -4.14762e-07 1
v -0.000167996 0.0314796 -0.0179
vn 2.23197e-07 -4.14762e-07 1
v 0.011895 0.0291566 -0.0274
vn -2.6045e-07 4.81817e-07 -1
v 2.20238e-05 -3.20171e-06 -0.0274
vn -2.6045e-07 4.81817e-07 -1
v -0.000167996 0.0314806 -0.0274
vn -2.6045e-07 4.81817e-07 -1
v 0.011895 0.0291566 -0.0179
vn 0.420178 0.907442 2.6033e-07
v 0.011895 0.0291566 -0.0274
vn 0.296561 0.955014 3.25711e-07
v -0.000167996 0.0314796 -0.0179
vn 0.0227883 0.99974 4.15308e-07
v 0.011895 0.0291566 -0.0274
vn 0.296561 0.955014 3.25711e-07
v -0.000167996 0.0314806 -0.0274
vn -0.0419217 0.999121 4.29823e-07
v -0.000167996 0.0314796 -0.0179
vn 0.0227883 0.99974 4.15308e-07
v 2.20238e-05 -3.20171e-06 -0.0179
vn 2.23197e-07 -4.14762e-07 1
v -0.000167996 0.0314796 -0.0179
vn 2.23197e-07 -4.14762e-07 1
v -0.012201 0.0290106 -0.0179
vn 2.23197e-07 -4.14762e-07 1
v 2.20238e-05 -3.20171e-06 -0.0179
vn 2.23197e-07 -4.14762e-07 1
v -0.029137 0.0118695 -0.0179
vn 2.23197e-07 -4.14762e-07 1
v -0.031461 -0.000193102 -0.0179
vn 2.23197e-07 -4.14762e-07 1
v 2.20238e-05 -3.20171e-06 -0.0179
vn 2.23197e-07 -4.14762e-07 1
v -0.031461 -0.000193102 -0.0179
vn 2.23197e-07 -4.14762e-07 1
v -0.028992 -0.0122268 -0.0179
vn 2.23197e-07 -4.14762e-07 1
v 2.20238e-05 -3.20171e-06 -0.0179
vn 2.23197e-07 -4.14762e-07 1
v -0.028992 -0.0122268 -0.0179
vn 2.23197e-07 -4.14762e-07 1
v -0.022106 -0.0223995 -0.0179
vn 2.23197e-07 -4.14762e-07 1
v 2.20238e-05 -3.20171e-06 -0.0179
vn 2.23197e-07 -4.14762e-07 1
v -0.022106 -0.0223995 -0.0179
vn 2.23197e-07 -4.14762e-07 1
v -0.01185 -0.0291626 -0.0179
vn 2.23197e-07 -4.14762e-07 1
v -0.022106 -0.0223995 -0.0274
vn -2.6045e-07 4.81817e-07 -1
v 2.20238e-05 -3.20171e-06 -0.0274
vn -2.6045e-07 4.81817e-07 -1
v -0.01185 -0.0291626 -0.0274
vn -2.6045e-07 4.81817e-07 -1
v 2.20238e-05 -3.20171e-06 -0.0179
vn 2.23197e-07 -4.14762e-07 1
v -0.01185 -0.0291626 -0.0179
vn 2.23197e-07 -4.14762e-07 1
v 0.000211984 -0.0314865 -0.0179
vn 2.23197e-07 -4.14762e-07 1
v -0.020583 -0.0388636 -0.0184
vn -2.6045e-07 4.81817e-07 -1
v 2.96516e-08 -1.99131e-07 -0.0184
vn -2.6045e-07 4.81817e-07 -1
v -0.00414398 -0.0437823 -0.0184
vn -2.6045e-07 4.81817e-07 -1
v -0.00414398 -0.0437819 0.0274
vn -0.167742 -0.985831 -3.73612e-07
v -0.00414398 -0.0437823 -0.0184
vn -0.0227884 -0.99974 -4.19965e-07
v 0.012926 -0.042035 0.0274
vn 0.191658 -0.981462 -4.6711e-07
v -0.00414398 -0.0437823 -0.0184
vn -0.0227884 -0.99974 -4.19965e-07
v 0.012926 -0.0420354 -0.0184
vn 0.335759 -0.941948 -5.03561e-07
v 0.012926 -0.042035 0.0274
vn 0.191658 -0.981462 -4.6711e-07
v 0.012926 -0.042035 0.0274
vn 0.191658 -0.981462 -4.6711e-07
v 0.012926 -0.0420354 -0.0184
vn 0.335759 -0.941948 -5.03561e-07
v 0.028028 -0.0338886 0.0274
vn 0.586074 -0.810257 -4.14114e-07
v 0.012926 -0.0420354 -0.0184
vn 0.335759 -0.941948 -5.03561e-07
v 0.028028 -0.0338891 -0.0184
vn 0.700262 -0.713886 -4.6703e-07
v 0.028028 -0.0338886 0.0274
vn 0.586074 -0.810257 -4.14114e-07
v 0.028028 -0.0338891 -0.0184
vn -2.6045e-07 4.81817e-07 -1
v 2.96516e-08 -1.99131e-07 -0.0184
vn -2.6045e-07 4.81817e-07 -1
v 0.038863 -0.0205835 -0.0184
vn -2.6045e-07 4.81817e-07 -1
v 0.028028 -0.0338886 0.0274
vn 0.586074 -0.810257 -4.14114e-07
v 0.028028 -0.0338891 -0.0184
vn 0.700262 -0.713886 -4.6703e-07
v 0.038864 -0.0205833 0.0274
vn 0.836797 -0.547513 -4.19831e-07
v 0.028028 -0.0338891 -0.0184
vn 0.700262 -0.713886 -4.6703e-07
v 0.038863 -0.0205835 -0.0184
vn 0.907442 -0.420178 -3.43642e-07
v 0.038864 -0.0205833 0.0274
vn 0.836797 -0.547513 -4.19831e-07
v 0.038864 -0.0205833 0.0274
vn 0.836797 -0.547513 -4.19831e-07
v 0.038863 -0.0205835 -0.0184
vn 0.907442 -0.420178 -3.43642e-07
v 0.043782 -0.004144 0.0274
vn 0.985831 -0.167742 -3.64418e-07
v 0.038863 -0.0205835 -0.0184
vn 0.907442 -0.420178 -3.43642e-07
v 0.043782 -0.0041443 -0.0184
vn 0.99974 -0.0227883 -2.79514e-07
v 0.043782 -0.004144 0.0274
vn 0.985831 -0.167742 -3.64418e-07
v 0.043782 -0.0041443 -0.0184
vn -2.6045e-07 4.81817e-07 -1
v 2.96516e-08 -1.99131e-07 -0.0184
vn -2.6045e-07 4.81817e-07 -1
v 0.042035 0.0129258 -0.0184
vn -2.6045e-07 4.81817e-07 -1
v 0.043782 -0.004144 0.0274
vn 0.985831 -0.167742 -3.64418e-07
v 0.043782 -0.0041443 -0.0184
vn 0.99974 -0.0227883 -2.79514e-07
v 0.042035 0.012926 0.0274
vn 0.981462 0.191658 -1.78731e-07
v 0.043782 -0.0041443 -0.0184
vn 0.99974 -0.0227883 -2.79514e-07
v 0.042035 0.0129258 -0.0184
vn 0.941948 0.335759 -2.92224e-08
v 0.042035 0.012926 0.0274
vn 0.981462 0.191658 -1.78731e-07
v 0.042035 0.0129258 -0.0184
vn -2.6045e-07 4.81817e-07 -1
v 2.96516e-08 -1.99131e-07 -0.0184
vn -2.6045e-07 4.81817e-07 -1
v 0.033889 0.0280286 -0.0184
vn -2.6045e-07 4.81817e-07 -1
v 0.042035 0.012926 0.0274
vn 0.981462 0.191658 -1.78731e-07
v 0.042035 0.0129258 -0.0184
vn 0.941948 0.335759 -2.92224e-08
v 0.033889 0.0280286 0.0274
vn 0.810257 0.586074 -3.05276e-10
v 0.042035 0.0129258 -0.0184
vn 0.941948 0.335759 -2.92224e-08
v 0.033889 0.0280286 -0.0184
vn 0.713886 0.700262 1.49194e-07
v 0.033889 0.0280286 0.0274
vn 0.810257 0.586074 -3.05276e-10
v 0.033889 0.0280286 0.0274
vn 0.810257 0.586074 -3.05276e-10
v 0.033889 0.0280286 -0.0184
vn 0.713886 0.700262 1.49194e-07
v 0.020583 0.0388636 0.0274
vn 0.547513 0.836797 2.49955e-07
v 0.033889 0.0280286 -0.0184
vn 0.713886 0.700262 1.49194e-07
v 0.020583 0.0388636 -0.0184
vn 0.420178 0.907442 2.6033e-07
v 0.020583 0.0388636 0.0274
vn 0.547513 0.836797 2.49955e-07
v 0.020583 0.0388636 0.0274
vn 0.547513 0.836797 2.49955e-07
v 0.020583 0.0388636 -0.0184
vn 0.420178 0.907442 2.6033e-07
v 0.00414398 0.0437826 0.0274
vn 0.167742 0.985831 3.58712e-07
v 0.020583 0.0388636 -0.0184
vn 0.420178 0.907442 2.6033e-07
v 0.00414398 0.0437816 -0.0184
vn 0.0227883 0.99974 4.15308e-07
v 0.00414398 0.0437826 0.0274
vn 0.167742 0.985831 3.58712e-07
v 0.00414398 0.0437816 -0.0184
vn -2.6045e-07 4.81817e-07 -1
v 2.96516e-08 -1.99131e-07 -0.0184
vn -2.6045e-07 4.81817e-07 -1
v -0.012926 0.0420346 -0.0184
vn -2.6045e-07 4.81817e-07 -1
v -0.042035 -0.0129262 -0.0184
vn -2.6045e-07 4.81817e-07 -1
v 2.96516e-08 -1.99131e-07 -0.0184
vn -2.6045e-07 4.81817e-07 -1
v -0.033889 -0.0280284 -0.0184
vn -2.6045e-07 4.81817e-07 -1
v -0.033889 -0.0280284 -0.0184
vn -2.6045e-07 4.81817e-07 -1
v 2.96516e-08 -1.99131e-07 -0.0184
vn -2.6045e-07 4.81817e-07 -1
v -0.020583 -0.0388636 -0.0184
vn -2.6045e-07 4.81817e-07 -1
f 1//1 2//2 3//3
f 4//4 5//5 6//6
f 7//7 8//8 9//9
f 10//10 11//11 12//12
f 13//13 14//14 15//15
f 16//16 17//17 18//18
f 19//19 20//20 21//21
f 22//22 23//23 24//24
f 25//25 26//26 27//27
f 28//28 29//29 30//30
f 31//31 32//32 33//33
f 34//34 35//35 36//36
f 37//37 38//38 39//39
f 40//40 41//41 42//42
f 43//43 44//44 45//45
f 46//46 47//47 48//48
f 49//49 50//50 51//51
f 52//52 53//53 54//54
f 55//55 56//56 57//57
f 58//58 59//59 60//60
f 61//61 62//62 63//63
f 64//64 65//65 66//66
f 67//67 68//68 69//69
f 70//70 71//71 72//72
f 73//73 74//74 75//75
f 76//76 77//77 78//78
f 79//79 80//80 81//81
f 82//82 83//83 84//84
f 85//85 86//86 87//87
f 88//88 89//89 90//90
f 91//91 92//92 93//93
f 94//94 95//95 96//96
f 97//97 98//98 99//99
f 100//100 101//101 102//102
f 103//103 104//104 105//105
f 106//106 107//107 108//108
f 109//109 110//110 111//111
f 112//112 113//113 114//114
f 115//115 116//116 117//117
f 118//118 119//119 120//120
f 121//121 122//122 123//123
f 124//124 125//125 126//126
f 127//127 128//128 129//129
f 130//130 131//131 132//132
f 133//133 134//134 135//135
f 136//136 137//137 138//138
f 139//139 140//140 141//141
f 142//142 143//143 144//144
f 145//145 146//146 147//147
f 148//148 149//149 150//150
f 151//151 152//152 153//153
f 154//154 155//155 156//156
f 157//157 158//158 159//159
f 160//160 161//161 162//162
f 163//163 164//164 165//165
f 166//166 167//167 168//168
f 169//169 170//170 171//171
f 172//172 173//173 174//174
f 175//175 176//176 177//177
f 178//178 179//179 180//180
f 181//181 182//182 183//183
f 184//184 185//185 186//186
f 187//187 188//188 189//189
f 190//190 191//191 192//192
f 193//193 194//194 195//195
f 196//196 197//197 198//198
f 199//199 200//200 201//201
f 202//202 203//203 204//204
f 205//205 206//206 207//207
f 208//208 209//209 210//210
f 211//211 212//212 213//213
f 214//214 215//215 216//216
f 217//217 218//218 219//219
f 220//220 221//221 222//222
f 223//223 224//224 225//225
f 226//226 227//227 228//228
f 229//229 230//230 231//231
f 232//232 233//233 234//234
f 235//235 236//236 237//237
f 238//238 239//239 240//240
f 241//241 242//242 243//243
f 244//244 245//245 246//246
f 247//247 248//248 249//249
f 250//250 251//251 252//252
f 253//253 254//254 255//255
f 256//256 257//257 258//258
f 259//259 260//260 261//261
f 262//262 263//263 264//264
f 265//265 266//266 267//267
f 268//268 269//269 270//270
f 271//271 272//272 273//273
f 274//274 275//275 276//276
f 277//277 278//278 279//279
f 280//280 281//281 282//282
f 283//283 284//284 285//285
f 286//286 287//287 288//288
f 289//289 290//290 291//291
f 292//292 293//293 294//294
f 295//295 296//296 297//297
f 298//298 299//299 300//300
f 301//301 302//302 303//303
f 304//304 305//305 306//306
f 307//307 308//308 309//309
f 310//310 311//311 312//312
f 313//313 314//314 315//315
f 316//316 317//317 318//318
f 319//319 320//320 321//321
f 322//322 323//323 324//324
f 325//325 326//326 327//327
f 328//328 329//329 330//330
f 331//331 332//332 333//333
f 334//334 335//335 336//336
